<?xml version="1.0" standalone="no"?>
<!DOCTYPE svg PUBLIC "-//W3C//DTD SVG 20010904//EN"
 "http://www.w3.org/TR/2001/REC-SVG-20010904/DTD/svg10.dtd">
<svg version="1.0" xmlns="http://www.w3.org/2000/svg"
 width="512.000000pt" height="512.000000pt" viewBox="0 0 512.000000 512.000000"
 preserveAspectRatio="xMidYMid meet">
<metadata>
Created by potrace 1.11, written by Peter Selinger 2001-2013
</metadata>
<g transform="translate(0.000000,512.000000) scale(0.100000,-0.100000)"
fill="#000000" stroke="none">
<path d="M1970 5081 c-74 -24 -139 -82 -167 -149 -19 -46 -27 -148 -15 -199 8
-37 7 -43 -8 -48 -29 -9 -43 -33 -36 -60 5 -20 15 -26 46 -31 22 -4 40 -11 40
-17 0 -6 20 -52 44 -102 93 -192 285 -314 545 -350 l53 -7 -4 -82 c-5 -68 -30
-172 -65 -263 -4 -10 27 -13 157 -13 146 0 162 2 156 16 -22 56 -47 181 -53
256 l-6 87 39 6 c191 32 334 96 435 196 55 55 77 86 116 168 37 78 52 101 68
101 30 0 65 28 65 51 0 11 -12 27 -28 36 -28 16 -28 16 -24 103 6 113 -14 177
-73 235 -112 112 -274 93 -415 -49 l-60 -61 -223 1 -222 1 -63 62 c-95 94
-218 140 -302 112z"/>
<path d="M1932 3648 c-62 -30 -109 -90 -134 -172 -17 -57 -20 -85 -15 -165 5
-92 4 -98 -17 -107 -24 -10 -34 -58 -15 -80 6 -8 24 -14 39 -14 24 0 29 -7 58
-82 70 -183 173 -303 324 -377 83 -41 216 -81 270 -81 28 0 28 0 28 -64 0 -65
-13 -133 -50 -261 -11 -38 -20 -73 -20 -77 0 -5 73 -8 161 -8 l161 0 -6 23
c-19 69 -46 223 -52 298 l-7 86 49 8 c149 22 307 99 405 197 70 70 139 189
169 291 13 43 17 47 45 47 38 0 55 16 55 50 0 30 -17 50 -42 50 -15 0 -17 5
-11 28 15 58 7 205 -16 262 -41 107 -127 170 -231 170 -89 0 -172 -50 -257
-153 l-42 -50 -225 -1 c-124 -1 -226 2 -226 5 0 3 -27 36 -60 72 -108 118
-232 156 -338 105z"/>
<path d="M1923 2056 c-100 -47 -148 -153 -141 -307 4 -84 3 -88 -19 -98 -16
-7 -23 -19 -23 -39 0 -35 16 -52 50 -52 23 0 30 -9 59 -80 96 -236 273 -369
546 -413 l75 -12 0 -50 c-1 -58 -11 -107 -47 -227 l-26 -88 -1199 0 -1198 0 0
-345 0 -345 2560 0 2560 0 0 345 0 345 -1199 0 -1198 0 -16 63 c-26 96 -35
146 -42 228 l-7 76 48 8 c86 13 218 55 284 92 36 20 98 69 138 109 59 58 81
90 117 167 25 52 45 102 45 111 0 11 9 16 33 16 41 0 57 15 57 53 0 22 -6 31
-28 39 -28 11 -28 11 -19 70 12 70 -3 169 -33 228 -26 50 -94 108 -144 121
-56 15 -142 7 -197 -20 -25 -12 -75 -52 -112 -89 l-68 -67 -222 1 -222 1 -70
70 c-112 111 -229 141 -342 89z"/>
</g>
</svg>
